<svg id="Layer_1" data-name="Layer 1" xmlns="http://www.w3.org/2000/svg" xmlns:xlink="http://www.w3.org/1999/xlink" viewBox="0 0 1920 680"><defs><style>.cls-1,.cls-2{fill:none;}.cls-2{stroke:#231f20;stroke-miterlimit:10;}.cls-3{fill:url(#pattern_eti_2);}</style><pattern id="pattern_eti_2" data-name="pattern eti 2" width="413.11" height="238.14" patternTransform="translate(-294 -145.86)" patternUnits="userSpaceOnUse" viewBox="0 0 413.11 238.14"><rect class="cls-1" width="413.11" height="238.14"/><polygon class="cls-2" points="341.46 201.28 404.8 238.24 340.59 274.32 276.42 237.86 341.46 201.28"/><polygon class="cls-2" points="345.78 194.77 408.92 232.06 409.13 158.44 346 120.17 345.78 194.77"/><polygon class="cls-2" points="71.86 201.71 8.32 238.28 72.28 274.73 136.69 238.67 71.86 201.71"/><polygon class="cls-2" points="67.3 194.59 4.22 231.86 3.97 158.24 67.12 119.96 67.3 194.59"/><polygon class="cls-2" points="345.54 43.18 408.87 6.26 408.67 79.9 345.3 117.8 345.54 43.18"/><polygon class="cls-2" points="341.46 -36.86 404.8 0.1 340.59 36.17 276.42 -0.29 341.46 -36.86"/><polygon class="cls-2" points="138.99 162.25 202.31 125.33 202.12 198.97 138.74 236.87 138.99 162.25"/><polygon class="cls-2" points="134.91 82.21 198.24 119.17 134.04 155.25 69.87 118.78 134.91 82.21"/><polygon class="cls-2" points="139.23 75.7 202.36 112.99 202.57 39.37 139.45 1.1 139.23 75.7"/><polygon class="cls-2" points="273.86 162.64 210.77 125.36 210.53 198.99 273.67 237.26 273.86 162.64"/><polygon class="cls-2" points="278.42 82.64 214.88 119.2 278.83 155.65 343.24 119.6 278.42 82.64"/><polygon class="cls-2" points="273.86 75.52 210.77 112.79 210.53 39.17 273.67 0.89 273.86 75.52"/><polygon class="cls-2" points="67.3 43.56 4.22 6.29 3.97 79.92 67.12 118.19 67.3 43.56"/><polygon class="cls-2" points="71.86 -36.44 8.32 0.13 72.28 36.58 136.69 0.53 71.86 -36.44"/></pattern></defs><title>etiwebsite-assets</title><rect class="cls-3" width="1920" height="680"/></svg>